REM MD5 2837b3730a836c4a8d8a4f7c76bf4bd4
FILE "Dengeki PlayStation D29 (Japan).bin" BINARY
  TRACK 01 MODE2/2352
    INDEX 01 00:00:00
  TRACK 02 AUDIO
    INDEX 00 67:09:29
    INDEX 01 67:11:29
  TRACK 03 AUDIO
    INDEX 00 67:45:51
    INDEX 01 67:47:51
REM LEADOUT 70:56:09
